<?xml version="1.0" standalone="no"?><!DOCTYPE svg PUBLIC "-//W3C//DTD SVG 1.1//EN" "http://www.w3.org/Graphics/SVG/1.1/DTD/svg11.dtd"><svg t="1751038605456" class="icon" viewBox="0 0 1024 1024" version="1.1" xmlns="http://www.w3.org/2000/svg" p-id="10892" xmlns:xlink="http://www.w3.org/1999/xlink" width="200" height="200"><path d="M1024.273067 511.931733q0 12.5952-0.6144 25.122134-0.6144 12.561067-1.8432 25.088-1.2288 12.4928-3.072 24.917333t-4.3008 24.7808q-2.4576 12.288-5.5296 24.507733-3.037867 12.1856-6.690134 24.234667-3.652267 12.014933-7.850666 23.825067-4.266667 11.844267-9.079467 23.4496-4.778667 11.605333-10.171733 22.971733-5.358933 11.3664-11.298134 22.459733-5.9392 11.093333-12.3904 21.845334-6.485333 10.786133-13.448533 21.230933-6.9632 10.4448-14.472533 20.548267-7.4752 10.103467-15.4624 19.797333-7.953067 9.728-16.384 19.0464-8.465067 9.3184-17.339734 18.193067t-18.193066 17.339733q-9.3184 8.430933-19.0464 16.384-9.693867 7.9872-19.797334 15.4624-10.103467 7.509333-20.548266 14.472533-10.4448 6.997333-21.230934 13.448534-10.786133 6.485333-21.845333 12.3904-11.093333 5.9392-22.459733 11.298133-11.3664 5.358933-22.971734 10.171733t-23.4496 9.045334q-11.810133 4.232533-23.8592 7.8848-12.014933 3.652267-24.234666 6.724266-12.151467 3.037867-24.4736 5.461334-12.356267 2.491733-24.7808 4.334933-12.424533 1.8432-24.917334 3.072-12.526933 1.2288-25.088 1.8432-12.526933 0.6144-25.122133 0.6144-12.561067 0-25.088-0.6144-12.561067-0.6144-25.088-1.8432-12.4928-1.2288-24.917333-3.072t-24.7808-4.3008q-12.288-2.4576-24.507734-5.5296-12.1856-3.037867-24.234666-6.690133-12.014933-3.652267-23.825067-7.850667-11.844267-4.266667-23.4496-9.079467-11.605333-4.778667-22.971733-10.171733-11.3664-5.358933-22.459734-11.298133-11.0592-5.9392-21.845333-12.3904-10.786133-6.485333-21.230933-13.448534-10.4448-6.9632-20.548267-14.472533-10.103467-7.4752-19.797333-15.4624-9.728-7.953067-19.0464-16.384-9.3184-8.465067-18.193067-17.339733t-17.339733-18.193067q-8.430933-9.3184-16.384-19.0464-7.9872-9.693867-15.4624-19.797333-7.509333-10.103467-14.472534-20.548267-6.997333-10.4448-13.448533-21.230933-6.485333-10.786133-12.3904-21.845334-5.9392-11.093333-11.298133-22.459733-5.358933-11.3664-10.171734-22.971733t-9.045333-23.4496q-4.232533-11.810133-7.8848-23.8592-3.652267-12.014933-6.724267-24.234667-3.037867-12.151467-5.461333-24.4736-2.491733-12.356267-4.334933-24.7808-1.8432-12.424533-3.072-24.917333-1.2288-12.526933-1.8432-25.088Q0.375467 524.526933 0.375467 511.931733q0-12.561067 0.6144-25.088 0.6144-12.561067 1.8432-25.088 1.2288-12.4928 3.072-24.917333t4.3008-24.7808q2.4576-12.288 5.495466-24.507733 3.072-12.1856 6.724267-24.234667 3.652267-12.014933 7.850667-23.825067 4.266667-11.844267 9.079466-23.4496 4.778667-11.605333 10.171734-22.971733 5.358933-11.3664 11.298133-22.459733 5.9392-11.0592 12.3904-21.845334 6.485333-10.786133 13.448533-21.230933 6.9632-10.4448 14.472534-20.548267 7.4752-10.103467 15.4624-19.797333 7.953067-9.728 16.384-19.0464 8.465067-9.3184 17.339733-18.193067t18.193067-17.339733q9.3184-8.430933 19.0464-16.384 9.693867-7.9872 19.797333-15.4624 10.103467-7.509333 20.548267-14.472533 10.4448-6.997333 21.230933-13.448534 10.786133-6.485333 21.845333-12.3904 11.093333-5.9392 22.459734-11.298133 11.3664-5.358933 22.971733-10.171733t23.4496-9.045334q11.810133-4.232533 23.8592-7.8848 12.014933-3.652267 24.234667-6.724266 12.151467-3.037867 24.4736-5.461334 12.356267-2.491733 24.7808-4.334933 12.424533-1.8432 24.917333-3.072 12.526933-1.2288 25.088-1.8432Q499.746133 0 512.341333 0q12.561067 0 25.088 0.6144 12.561067 0.6144 25.088 1.8432 12.4928 1.2288 24.917334 3.072t24.7808 4.3008q12.288 2.4576 24.507733 5.495467 12.1856 3.072 24.234667 6.724266 12.014933 3.652267 23.825066 7.850667 11.844267 4.266667 23.4496 9.079467 11.605333 4.778667 22.971734 10.171733 11.3664 5.358933 22.459733 11.298133 11.093333 5.9392 21.845333 12.3904 10.786133 6.485333 21.230934 13.448534 10.4448 6.9632 20.548266 14.472533 10.103467 7.4752 19.797334 15.4624 9.728 7.953067 19.0464 16.384 9.3184 8.465067 18.193066 17.339733t17.339734 18.193067q8.430933 9.3184 16.384 19.0464 7.9872 9.693867 15.4624 19.797333 7.509333 10.103467 14.472533 20.548267 6.997333 10.4448 13.448533 21.230933 6.485333 10.786133 12.3904 21.845334 5.9392 11.093333 11.298134 22.459733 5.358933 11.3664 10.171733 22.971733t9.045333 23.4496q4.232533 11.810133 7.8848 23.8592 3.652267 12.014933 6.724267 24.234667 3.037867 12.151467 5.461333 24.4736 2.491733 12.356267 4.334934 24.7808 1.8432 12.424533 3.072 24.917333 1.2288 12.526933 1.8432 25.088 0.6144 12.526933 0.6144 25.122134z" fill="#99A9BF" p-id="10893"></path><path d="M512.3072 614.331733a191.931733 191.931733 0 0 0 192-191.965866 191.931733 191.931733 0 0 0-192-192 191.931733 191.931733 0 0 0-191.965867 192 191.931733 191.931733 0 0 0 191.965867 191.965866zM128.375467 851.114667c101.546667 109.6704 223.573333 167.253333 365.909333 172.782933 159.505067 2.8672 293.4784-54.784 401.988267-172.782933 0-127.658667-255.7952-191.965867-383.965867-191.965867-128.136533 0-383.931733 64.273067-383.931733 191.965867z" fill="#E8EFF8" p-id="10894"></path></svg>