<?xml version="1.0" standalone="no"?><!DOCTYPE svg PUBLIC "-//W3C//DTD SVG 1.1//EN" "http://www.w3.org/Graphics/SVG/1.1/DTD/svg11.dtd"><svg t="1749713063662" class="icon" viewBox="0 0 1024 1024" version="1.1" xmlns="http://www.w3.org/2000/svg" p-id="17145" xmlns:xlink="http://www.w3.org/1999/xlink" width="200" height="200"><path d="M512 512m-512 0a512 512 0 1 0 1024 0 512 512 0 1 0-1024 0Z" fill="#1890FF" p-id="17146"></path><path d="M526.304 229.952a24.128 24.128 0 0 0-15.328 24.16c0.8 10.496 8.352 19.264 18.72 21.76a24.704 24.704 0 0 0 26.72-10.944 23.84 23.84 0 0 0-2.432-28.384l-1.184-1.28L905.92 582.912l-288.736 175.968L227.2 798.56l27.104-466.56 14.624-5.504a24.032 24.032 0 0 0-14.112 31.104 24.64 24.64 0 0 0 31.552 14.048 24.032 24.032 0 0 0 14.4-31.008 24.64 24.64 0 0 0-31.424-14.304l256.96-96.384z m-272.96 517.504a24.32 24.32 0 0 0-24.544 24.16 24.32 24.32 0 0 0 24.544 24.16 24.32 24.32 0 0 0 24.512-24.16 24.32 24.32 0 0 0-24.512-24.16z m355.712-36.224a24.32 24.32 0 0 0-24.512 24.16 24.32 24.32 0 0 0 24.512 24.16 24.32 24.32 0 0 0 24.544-24.16 24.32 24.32 0 0 0-24.544-24.16z m-159.904-141.92L309.12 741.664l253.888-25.856-113.824-146.496z m55.136-8.576l110.752 142.592 178.88-109.024-289.632-33.568z m-205.216-153.984l-16.864 290.688 131.104-161.312c3.2 18.816 20.736 32 40 30.048a36.416 36.416 0 0 0 33.056-37.44 36.512 36.512 0 0 0-35.808-34.816 36.608 36.608 0 0 0-37.6 32.96l-113.92-120.128z m567.584 147.52a24.32 24.32 0 0 0-24.512 24.128 24.32 24.32 0 0 0 24.512 24.16 24.32 24.32 0 0 0 24.544-24.16 24.32 24.32 0 0 0-24.544-24.128z m-319.648-256.32l-65.408 211.52 317.728 36.8-252.32-248.32z m-49.6-5.472l-176.736 66.24 117.824 124.288 58.912-190.56z m44.16-68.224l11.232 11.04-1.216-1.152a24.736 24.736 0 0 0-24.48-4.48l14.496-5.44z" fill="#FFFFFF" p-id="17147" data-spm-anchor-id="a313x.search_index.0.i25.74c23a81UUyjmo" class="selected"></path><path d="M253.344 711.232c33.856 0 61.312 27.04 61.312 60.384S287.2 832 253.344 832C219.456 832 192 804.96 192 771.616s27.456-60.384 61.344-60.384z m0 36.224a24.32 24.32 0 0 0-24.544 24.16 24.32 24.32 0 0 0 24.544 24.16 24.32 24.32 0 0 0 24.512-24.16 24.32 24.32 0 0 0-24.512-24.16z m355.712-72.448c33.888 0 61.344 27.04 61.344 60.384s-27.456 60.384-61.344 60.384c-33.856 0-61.312-27.04-61.312-60.384s27.456-60.384 61.312-60.384z m0 36.224a24.32 24.32 0 0 0-24.512 24.16 24.32 24.32 0 0 0 24.512 24.16 24.32 24.32 0 0 0 24.544-24.16 24.32 24.32 0 0 0-24.544-24.16z m257.6-193.184c21.92 0 42.176 11.52 53.12 30.176a59.552 59.552 0 0 1 0 60.384 61.504 61.504 0 0 1-53.12 30.176c-33.856 0-61.312-27.008-61.312-60.384 0-33.344 27.456-60.352 61.312-60.352zM449.6 457.664c40.64 0 73.6 32.448 73.6 72.448 0 40-32.96 72.448-73.6 72.448-40.64 0-73.6-32.448-73.6-72.448 0-40 32.96-72.448 73.6-72.448z m417.056 96.608a24.32 24.32 0 0 0-24.512 24.128 24.32 24.32 0 0 0 24.512 24.16 24.32 24.32 0 0 0 24.544-24.16 24.32 24.32 0 0 0-24.544-24.128zM449.6 493.888c-20.32 0-36.8 16.224-36.8 36.224 0 20 16.48 36.224 36.8 36.224 20.32 0 36.8-16.224 36.8-36.224 0-20-16.48-36.224-36.8-36.224zM277.856 288.608c33.888 0 61.344 27.04 61.344 60.384s-27.456 60.352-61.344 60.352c-33.856 0-61.312-27.008-61.312-60.352 0-33.344 27.456-60.384 61.312-60.384z m0 36.224a24.32 24.32 0 0 0-24.512 24.16 24.32 24.32 0 0 0 24.512 24.128 24.32 24.32 0 0 0 24.544-24.128 24.32 24.32 0 0 0-24.544-24.16zM535.456 192c33.888 0 61.344 27.04 61.344 60.384s-27.456 60.384-61.344 60.384c-33.856 0-61.312-27.04-61.312-60.384S501.6 192 535.456 192z m0 36.224a24.32 24.32 0 0 0-24.512 24.16 24.32 24.32 0 0 0 24.512 24.16 24.32 24.32 0 0 0 24.544-24.16 24.32 24.32 0 0 0-24.544-24.16z" fill="#FFFFFF" p-id="17148" data-spm-anchor-id="a313x.search_index.0.i24.74c23a81UUyjmo" class="selected"></path></svg>