<svg xmlns="http://www.w3.org/2000/svg" viewBox="0 0 156.56 97.07"><title>toleft</title><path d="M175.46,53.74a2.8,2.8,0,0,0-3.54,1.77c-.16.43-14.92,43.37-47.82,57.52a56.3,56.3,0,0,1-15,4.15,35,35,0,0,0,8.08-12.69c2.46-7.36,1.41-14.7-3.16-21.82C107.73,72.83,97.59,69.21,86.9,73,75.59,77,68,87.77,69.1,98a25.9,25.9,0,0,0,13.31,20.09A36.67,36.67,0,0,0,94,122.32a97.4,97.4,0,0,1-18.89,9.2c-13.69,5-30.22,6.11-45.83,3l7.83-7.89a2.8,2.8,0,1,0-4-4L21.63,134.25a2.82,2.82,0,0,0-.82,2,2.93,2.93,0,0,0,.17.92,3,3,0,0,0,.68,1.08l12,11.62a2.8,2.8,0,0,0,3.91-4l-5.27-5.11c15.37,2.36,31.34,1,44.76-4a95.77,95.77,0,0,0,25.41-13.62,59.44,59.44,0,0,0,23.86-5c35.2-15.14,50.31-59,50.92-60.89A2.79,2.79,0,0,0,175.46,53.74ZM100.58,117.5a34.17,34.17,0,0,1-15.37-4.26A20.46,20.46,0,0,1,74.66,97.38c-.84-7.61,5.34-16,14.1-19.11,3.87-1.37,13.62-3.39,20.53,7.41a23.79,23.79,0,0,1,2.42,4.84,17.86,17.86,0,0,1,.13,12.15C110.14,107.76,106.22,112.82,100.58,117.5Z" transform="translate(-20.81 -53.6)" style="fill:#898989"/></svg>